<svg width="88" height="174" viewBox="0 0 88 174" fill="none" xmlns="http://www.w3.org/2000/svg">
<path fill-rule="evenodd" clip-rule="evenodd" d="M10.3918 15.6203C10.4024 15.6059 10.413 15.5917 27.2553 28.1351L10.413 15.5917C17.3406 6.28994 30.497 4.36525 39.7987 11.2928C48.7482 17.9579 50.8688 30.3891 44.8467 39.6055C44.8225 39.6576 44.7928 39.7231 44.7585 39.8022C44.4642 40.4816 43.7793 42.284 43.2741 45.403C42.2717 51.5907 41.8771 63.6121 47.4431 83.0145C54.4661 107.496 54.772 123.262 52.7739 137.846C52.0757 142.943 51.3265 146.952 50.6429 150.611C49.3277 157.65 48.2552 163.39 48.2552 173.071C48.2552 173.214 48.2538 173.357 48.251 173.5H6.25952C6.25667 173.357 6.25524 173.214 6.25524 173.071C6.25524 159.381 8.3934 147.737 9.92819 139.379C10.4412 136.585 10.8868 134.159 11.1626 132.146C12.3069 123.793 12.6139 113.916 7.07149 94.596C0.0721759 70.1973 -0.32337 51.8837 1.81457 38.6865C2.87947 32.1131 4.55009 26.9606 6.21875 23.1083C7.04993 21.1895 7.87154 19.6141 8.60087 18.3639C8.96519 17.7393 9.30552 17.1976 9.6113 16.7361C9.76416 16.5054 9.90829 16.2949 10.0424 16.1042C10.1094 16.0089 10.1739 15.9185 10.2358 15.8331C10.2667 15.7904 10.2969 15.749 10.3265 15.7087L10.3703 15.6493L10.3918 15.6203Z" fill="#C8D5DD"/>
<path d="M27.7721 7.60783C31.2354 3.69819 37.2124 3.33638 41.122 6.79968L62.9417 26.1284C64.1928 27.2367 64.3086 29.1493 63.2003 30.4004L58.9164 35.2363C55.3146 39.3024 49.0985 39.6787 45.0325 36.0768L24.0623 17.5006C22.4985 16.1153 22.3537 13.7245 23.7391 12.1606L27.7721 7.60783Z" fill="#A6BCCA"/>
<rect x="40.2578" y="98.8865" width="27.7948" height="33.0998" rx="13.8974" transform="rotate(-49.3685 40.2578 98.8865)" fill="#F390A8"/>
<rect x="26.9141" y="87.2061" width="10.5695" height="41.0423" rx="5.28475" transform="rotate(-49.9823 26.9141 87.2061)" fill="#F390A8"/>
<path d="M34.0391 65.5254L34.0434 70.4572L34.0391 75.6879" stroke="#F390A8" stroke-width="3" stroke-linecap="round"/>
<path d="M19.7305 70.6097L23.2209 74.094L26.9165 77.7957" stroke="#F390A8" stroke-width="3" stroke-linecap="round"/>
<path d="M12.8633 85.5111L17.7951 85.5067L23.0258 85.5111" stroke="#F390A8" stroke-width="3" stroke-linecap="round"/>
<rect x="42.1211" y="88.108" width="10.5695" height="28.389" rx="5.28475" transform="rotate(-49.231 42.1211 88.108)" fill="#F390A8"/>
<rect x="42.0938" y="108.816" width="10.5695" height="19.9085" rx="5.28475" transform="rotate(-53.1497 42.0938 108.816)" fill="#F390A8"/>
<rect x="49.4609" y="84.0834" width="10.5695" height="28.389" rx="5.28475" transform="rotate(-49.3685 49.4609 84.0834)" fill="#F390A8"/>
</svg>
