<svg width="150" height="148" viewBox="0 0 150 148" fill="none" xmlns="http://www.w3.org/2000/svg">
<path fill-rule="evenodd" clip-rule="evenodd" d="M98.6956 42.7376C110.157 39.6355 116.934 27.8291 113.832 16.3674C110.73 4.90563 98.9236 -1.87119 87.4619 1.23092C47.7671 11.9743 24.5835 34.5656 12.4495 62.985C1.06105 89.6583 0.15625 119.929 0.15625 144.928C0.15625 145.913 0.222542 146.883 0.350908 147.833H42.9616C43.09 146.883 43.1562 145.913 43.1562 144.928C43.1562 119.702 44.4362 97.5751 51.9958 79.8697C58.8098 63.9103 71.3374 50.1421 98.6956 42.7376Z" fill="#C8D5DD"/>
<path d="M49.0869 44.323C49.0869 44.323 60.6949 42.5831 74.9642 45.9421C87.4862 48.8899 96.36 55.1528 96.36 55.1528" stroke="#F390A8" stroke-width="3" stroke-linecap="round"/>
<path d="M46.3356 41.3585C47.7379 40.3548 49.6385 40.4144 50.9753 41.5038V41.5038C53.8093 43.8136 52.0949 48.402 48.4406 48.2876V48.2876C44.7863 48.1731 43.3625 43.4863 46.3356 41.3585V41.3585Z" fill="#F390A8"/>
<rect x="96.2109" y="69.1809" width="27.7948" height="33.0998" rx="13.8974" transform="rotate(-23.3719 96.2109 69.1809)" fill="#F390A8"/>
<rect x="89.3359" y="52.8331" width="10.5695" height="41.0423" rx="5.28475" transform="rotate(-23.9857 89.3359 52.8331)" fill="#F390A8"/>
<rect x="102.609" y="60.309" width="10.5695" height="28.389" rx="5.28475" transform="rotate(-23.2344 102.609 60.309)" fill="#F390A8"/>
<rect x="93.5078" y="78.9102" width="10.5695" height="19.9085" rx="5.28475" transform="rotate(-27.1531 93.5078 78.9102)" fill="#F390A8"/>
<rect x="110.969" y="59.9086" width="10.5695" height="28.389" rx="5.28475" transform="rotate(-23.3719 110.969 59.9086)" fill="#F390A8"/>
<path d="M82.2042 47.1256L77.6183 41.7567C77.0998 41.1498 76.1143 41.365 75.896 42.1327L73.7671 49.6217C73.5494 50.3877 74.2707 51.0885 75.0301 50.8488L81.7449 48.7287C82.428 48.513 82.6694 47.6702 82.2042 47.1256Z" fill="#F390A8"/>
<path d="M106.655 6.23533C111.721 4.96526 116.858 8.04266 118.128 13.1089L125.216 41.3835C125.622 43.0047 124.638 44.6484 123.017 45.0549L116.75 46.6258C111.481 47.9467 106.139 44.7462 104.818 39.4774L98.0058 12.3035C97.4978 10.277 98.7288 8.22236 100.755 7.71434L106.655 6.23533Z" fill="#A6BCCA"/>
</svg>
