<svg width="154" height="157" viewBox="0 0 154 157" fill="none" xmlns="http://www.w3.org/2000/svg">
<rect x="36.7969" y="103.289" width="64.689" height="9.52112" rx="4.76056" fill="#A6BCCA"/>
<rect x="40.1641" y="120.332" width="51.726" height="9.52112" rx="4.76056" fill="#A6BCCA"/>
<rect x="34.7383" y="112.81" width="48.105" height="7.52209" rx="3.76105" fill="#A6BCCA"/>
<path d="M46.4023 119.192C46.4023 126.662 52.4579 132.717 59.9278 132.717C67.3977 132.717 73.4532 126.662 73.4532 119.192C73.4532 111.722 67.3977 105.666 59.9278 105.666C52.4579 105.666 46.4023 111.722 46.4023 119.192Z" fill="#C8D5DD"/>
<path d="M17.1094 117.329C17.1094 124.799 23.1649 130.854 30.6348 130.854C38.1047 130.854 44.1602 124.799 44.1602 117.329C44.1602 109.859 38.1047 103.804 30.6348 103.804C23.1649 103.804 17.1094 109.859 17.1094 117.329Z" fill="#C8D5DD"/>
<path d="M64.6877 94.6716C63.9554 84.7132 55.3699 77.4938 45.3846 77.4938H44.587C32.4241 77.4938 22.9525 88.0507 24.2667 100.142L26.085 116.871C26.3782 119.568 26.1316 122.296 25.3596 124.897L19.9824 143.011C19.3121 145.269 20.1614 147.703 22.0911 149.054C23.9653 150.366 26.4386 150.385 28.2954 149.049C37.3715 142.516 63.412 123.014 64.6151 113.461C65.3219 107.849 65.1481 100.934 64.6877 94.6716Z" fill="#C8D5DD"/>
<path d="M44.1617 114.148C44.1617 115.376 44.6495 116.554 45.5178 117.422C46.3861 118.29 47.5638 118.778 48.7918 118.778C50.0198 118.778 51.1975 118.29 52.0658 117.422C52.9341 116.554 53.422 115.376 53.422 114.148H44.1617Z" fill="#C8D5DD"/>
<path d="M46.4032 114.148C46.4032 115.466 47.4716 116.534 48.7895 116.534C50.1075 116.534 51.1759 115.466 51.1759 114.148C51.1759 112.83 50.1075 111.762 48.7895 111.762C47.4716 111.762 46.4032 112.83 46.4032 114.148Z" fill="#C8D5DD"/>
<path d="M29.0445 114.148C29.0445 115.376 29.5323 116.554 30.4006 117.422C31.2689 118.29 32.4466 118.778 33.6746 118.778C34.9026 118.778 36.0803 118.29 36.9486 117.422C37.817 116.554 38.3048 115.376 38.3048 114.148H29.0445Z" fill="#C8D5DD"/>
<path d="M31.286 114.148C31.286 115.466 32.3544 116.534 33.6724 116.534C34.9903 116.534 36.0587 115.466 36.0587 114.148C36.0587 112.83 34.9903 111.762 33.6724 111.762C32.3544 111.762 31.286 112.83 31.286 114.148Z" fill="#C8D5DD"/>
<path d="M55.2071 112.764C55.2071 112 54.5876 111.381 53.8234 111.381H44.3903C43.6261 111.381 43.0066 112 43.0066 112.764C43.0066 113.528 43.6261 114.148 44.3903 114.148H53.8234C54.5876 114.148 55.2071 113.528 55.2071 112.764Z" fill="#C8D5DD"/>
<path d="M39.7755 112.764C39.7755 112 39.156 111.381 38.3918 111.381H28.9587C28.1945 111.381 27.575 112 27.575 112.764C27.575 113.528 28.1945 114.148 28.9587 114.148H38.3918C39.156 114.148 39.7755 113.528 39.7755 112.764Z" fill="#C8D5DD"/>
<path d="M51.1744 131.787C51.1744 130.482 50.1167 129.425 48.812 129.425H22.2958C20.9911 129.425 19.9334 130.482 19.9334 131.787C19.9334 133.092 20.9911 134.15 22.2958 134.15H48.812C50.1167 134.15 51.1744 133.092 51.1744 131.787Z" fill="#C8D5DD"/>
<path d="M46.5962 127.863C46.5962 127.001 45.8972 126.302 45.0348 126.302H27.5092C26.6468 126.302 25.9478 127.001 25.9478 127.863C25.9478 128.726 26.6468 129.425 27.5092 129.425H45.0348C45.8972 129.425 46.5962 128.726 46.5962 127.863Z" fill="#C8D5DD"/>
<path d="M36.2716 122.188L41.1897 125.14L41.1897 113.147L36.2716 122.188Z" fill="#C8D5DD"/>
<path d="M65.0899 88.2236C65.0899 82.2977 60.286 77.4938 54.3601 77.4938H25.6227C21.9058 77.4938 18.8927 80.5069 18.8927 84.2238V88.2236C18.8927 94.1496 23.6966 98.9535 29.6226 98.9535H65.0899V88.2236Z" fill="#C8D5DD"/>
<path d="M61.5713 110.82C63.5146 110.82 65.0899 109.245 65.0899 107.302V89.3608C65.0899 87.4175 63.5146 85.8422 61.5713 85.8422C59.628 85.8422 58.0527 87.4175 58.0527 89.3608V107.302C58.0527 109.245 59.628 110.82 61.5713 110.82Z" fill="#C8D5DD"/>
<path d="M41.9976 93.1087C43.8737 93.7598 45.9224 92.7667 46.5735 90.8905L52.2435 74.5515C52.8945 72.6753 51.9014 70.6266 50.0253 69.9756C48.1491 69.3245 46.1004 70.3176 45.4494 72.1938L39.7794 88.5328C39.1283 90.409 40.1214 92.4577 41.9976 93.1087Z" fill="#C8D5DD"/>
<path d="M47.5581 93.1087C49.4343 93.7598 51.483 92.7667 52.134 90.8905L57.804 74.5515C58.4551 72.6753 57.4619 70.6266 55.5858 69.9756C53.7097 69.3245 51.661 70.3176 51.0099 72.1938L45.3399 88.5328C44.6889 90.409 45.682 92.4577 47.5581 93.1087Z" fill="#C8D5DD"/>
<path d="M44.6719 91.0456C46.6449 90.819 48.0605 89.036 47.8339 87.0631L45.8605 69.8811C45.6339 67.9082 43.8508 66.4925 41.8779 66.7191C39.905 66.9457 38.4893 68.7288 38.7159 70.7017L40.6893 87.8837C40.9159 89.8566 42.699 91.2723 44.6719 91.0456Z" fill="#C8D5DD"/>
<path d="M33.9415 95.4905C35.9144 95.2639 37.3301 93.4808 37.1035 91.5079L35.13 74.3259C34.9034 72.353 33.1203 70.9374 31.1474 71.164C29.1745 71.3906 27.7588 73.1736 27.9854 75.1466L29.9589 92.3285C30.1855 94.3014 31.9686 95.7171 33.9415 95.4905Z" fill="#C8D5DD"/>
<path d="M30.9997 94.8035C32.8908 95.4096 34.9152 94.3678 35.5212 92.4766L40.799 76.0067C41.405 74.1155 40.3632 72.0911 38.472 71.4851C36.5809 70.8791 34.5565 71.9209 33.9505 73.8121L28.6727 90.282C28.0667 92.1731 29.1085 94.1975 30.9997 94.8035Z" fill="#C8D5DD"/>
<path d="M44.952 108.469C44.952 108.469 48.3921 97.2469 57.5806 85.8246C65.6439 75.801 75.1233 70.4991 75.1233 70.4991" stroke="#F390A8" stroke-width="3" stroke-linecap="round"/>
<path d="M41.0903 109.673C40.7901 107.975 41.6641 106.286 43.2238 105.55V105.55C46.5305 103.99 49.9297 107.517 48.2493 110.764V110.764C46.5689 114.011 41.7266 113.273 41.0903 109.673V109.673Z" fill="#F390A8"/>
<rect x="87.7148" y="76.6864" width="27.7948" height="33.0998" rx="13.8974" transform="rotate(-87.8042 87.7148 76.6864)" fill="#F390A8"/>
<rect x="70" y="75.8324" width="10.5695" height="41.0423" rx="5.28475" transform="rotate(-88.418 70 75.8324)" fill="#F390A8"/>
<rect x="82.4727" y="67.0863" width="10.5695" height="28.389" rx="5.28475" transform="rotate(-87.6666 82.4727 67.0863)" fill="#F390A8"/>
<rect x="95.3242" y="83.3243" width="10.5695" height="19.9085" rx="5.28475" transform="rotate(-91.5854 95.3242 83.3243)" fill="#F390A8"/>
<rect x="85.7188" y="59.3713" width="10.5695" height="28.389" rx="5.28475" transform="rotate(-87.8042 85.7188 59.3713)" fill="#F390A8"/>
<path d="M61.7699 79.8044L54.9476 81.6242C54.1763 81.8299 53.9451 82.8118 54.5435 83.3401L60.3804 88.4925C60.9774 89.0195 61.9209 88.6713 62.0323 87.8828L63.0178 80.9105C63.1181 80.2013 62.462 79.6198 61.7699 79.8044Z" fill="#F390A8"/>
</svg>
