<svg width="81" height="161" viewBox="0 0 81 161" fill="none" xmlns="http://www.w3.org/2000/svg">
<path fill-rule="evenodd" clip-rule="evenodd" d="M20.3543 43.496C9.32649 43.496 0.386719 52.4357 0.386719 63.4635V156.434C0.386719 157.754 0.514798 159.044 0.759205 160.292H39.9493C40.1937 159.044 40.3218 157.754 40.3218 156.434V63.4635C40.3218 52.4357 31.382 43.496 20.3543 43.496Z" fill="#C8D5DD"/>
<path fill-rule="evenodd" clip-rule="evenodd" d="M40.323 78.9346C29.2952 78.9346 20.3555 87.8743 20.3555 98.9021V160.292H60.2905V98.9021C60.2905 87.8743 51.3508 78.9346 40.323 78.9346Z" fill="#A6BCCA"/>
<path fill-rule="evenodd" clip-rule="evenodd" d="M60.2878 111.172C49.2601 111.172 40.3203 120.112 40.3203 131.14V160.292H80.2554V131.14C80.2554 120.112 71.3156 111.172 60.2878 111.172Z" fill="#5C7F94"/>
<path d="M41.0075 21.5288C39.8075 21.5288 38.7435 21.2808 37.8155 20.7848C36.8875 20.2728 36.1595 19.5848 35.6315 18.7208C35.1035 17.8408 34.8395 16.8568 34.8395 15.7688C34.8395 15.4008 34.9435 15.1048 35.1515 14.8808C35.3755 14.6408 35.6395 14.5208 35.9435 14.5208C36.2635 14.5208 36.5275 14.6408 36.7355 14.8808C36.9435 15.1048 37.0475 15.4008 37.0475 15.7688C37.0475 16.4248 37.2155 17.0328 37.5515 17.5928C37.8875 18.1368 38.3435 18.5768 38.9195 18.9128C39.4955 19.2328 40.1435 19.3928 40.8635 19.3928C41.9195 19.3928 42.7675 19.1048 43.4075 18.5288C44.0635 17.9368 44.3915 17.1128 44.3915 16.0568C44.3915 15.3848 44.2475 14.7848 43.9595 14.2568C43.6715 13.7128 43.2795 13.2808 42.7835 12.9608C42.2875 12.6408 41.7275 12.4808 41.1035 12.4808C40.7515 12.4808 40.4555 12.3608 40.2155 12.1208C39.9915 11.8808 39.8795 11.5848 39.8795 11.2328C39.8795 10.8808 39.9915 10.5928 40.2155 10.3688C40.4555 10.1288 40.7515 10.0088 41.1035 10.0088C41.5515 10.0088 41.9835 9.89681 42.3995 9.67281C42.8155 9.43281 43.1595 9.12081 43.4315 8.73681C43.7035 8.33681 43.8395 7.88881 43.8395 7.39281C43.8395 6.68881 43.5835 6.09681 43.0715 5.61681C42.5595 5.13681 41.9035 4.89681 41.1035 4.89681C40.4955 4.89681 39.9355 5.01681 39.4235 5.25681C38.9275 5.49681 38.5275 5.81681 38.2235 6.21681C37.9355 6.61681 37.7915 7.06481 37.7915 7.56081C37.7915 7.92881 37.6875 8.24081 37.4795 8.49681C37.2715 8.73681 37.0075 8.85681 36.6875 8.85681C36.3835 8.85681 36.1195 8.74481 35.8955 8.52081C35.6875 8.28081 35.5835 7.98481 35.5835 7.63281C35.5835 6.70481 35.8235 5.87281 36.3035 5.13681C36.7835 4.40081 37.4395 3.82481 38.2715 3.40881C39.1035 2.97681 40.0315 2.76081 41.0555 2.76081C41.9995 2.76081 42.8475 2.96881 43.5995 3.38481C44.3675 3.78481 44.9675 4.33681 45.3995 5.04081C45.8475 5.72881 46.0715 6.51281 46.0715 7.39281C46.0715 8.01681 45.9275 8.56881 45.6395 9.04881C45.3675 9.52881 45.0155 9.94481 44.5835 10.2968C44.1515 10.6328 43.6955 10.9128 43.2155 11.1368C44.4795 11.5688 45.3915 12.2248 45.9515 13.1048C46.5275 13.9688 46.8155 14.9608 46.8155 16.0808C46.8155 17.1208 46.5515 18.0568 46.0235 18.8888C45.4955 19.7048 44.7915 20.3528 43.9115 20.8328C43.0315 21.2968 42.0635 21.5288 41.0075 21.5288ZM54.8227 21.5288C52.9987 21.5288 51.5827 20.7048 50.5747 19.0568C49.5827 17.3928 49.0867 15.0888 49.0867 12.1448C49.0867 9.18481 49.5827 6.88081 50.5747 5.23281C51.5827 3.58481 52.9987 2.76081 54.8227 2.76081C56.0387 2.76081 57.0707 3.14481 57.9187 3.91281C58.7827 4.66481 59.4387 5.74481 59.8867 7.15281C60.3347 8.54481 60.5587 10.2088 60.5587 12.1448C60.5587 14.0808 60.3347 15.7528 59.8867 17.1608C59.4387 18.5528 58.7827 19.6328 57.9187 20.4008C57.0707 21.1528 56.0387 21.5288 54.8227 21.5288ZM54.8227 19.0328C55.5587 19.0328 56.1667 18.7368 56.6467 18.1448C57.1267 17.5368 57.4867 16.7128 57.7267 15.6728C57.9667 14.6328 58.0867 13.4568 58.0867 12.1448C58.0867 10.8328 57.9667 9.65681 57.7267 8.61681C57.4867 7.57681 57.1267 6.75281 56.6467 6.14481C56.1667 5.53681 55.5587 5.23281 54.8227 5.23281C54.0867 5.23281 53.4787 5.53681 52.9987 6.14481C52.5187 6.73681 52.1587 7.55281 51.9187 8.59281C51.6787 9.63281 51.5587 10.8168 51.5587 12.1448C51.5587 13.4728 51.6787 14.6568 51.9187 15.6968C52.1587 16.7368 52.5187 17.5528 52.9987 18.1448C53.4947 18.7368 54.1027 19.0328 54.8227 19.0328Z" fill="#F390A8"/>
</svg>
