<svg width="761" height="446" viewBox="0 0 761 446" fill="none" xmlns="http://www.w3.org/2000/svg">
<path d="M69.562 137.235C61.8822 136.016 54.9021 133.45 48.6218 129.537C42.4514 125.545 37.2599 120.59 33.0475 114.672C28.9448 108.675 26.0206 101.99 24.2748 94.617C22.6237 87.2593 22.4378 79.5508 23.7169 71.4917C24.981 63.5274 27.5295 56.3502 31.3626 49.96C35.3056 43.4901 40.1485 38.0865 45.8914 33.7491C51.7442 29.3319 58.2222 26.1804 65.3257 24.2946C72.4291 22.4088 79.8682 22.0829 87.6428 23.3169C94.9435 24.4756 101.051 26.4169 105.964 29.1409C110.973 31.8799 115.786 35.8514 120.403 41.0555C121.39 42.1842 122.006 43.2054 122.25 44.1189C122.494 45.0324 122.518 46.1054 122.322 47.338C122.036 49.1395 121.132 50.5511 119.609 51.573C118.196 52.5151 116.573 52.9381 114.742 52.8418C112.925 52.6507 111.269 51.756 109.773 50.1577C106.746 46.5669 103.465 43.6646 99.9281 41.4508C96.4862 39.2521 91.6839 37.6637 85.521 36.6855C79.927 35.7977 74.4843 36.1002 69.1929 37.5932C63.9014 39.0862 59.0434 41.5228 54.6188 44.903C50.2891 48.2983 46.6599 52.4852 43.7313 57.4636C40.8177 62.3473 38.8869 67.7757 37.9389 73.749C36.9758 79.817 37.1158 85.6713 38.359 91.3119C39.6172 96.8577 41.7791 101.915 44.8448 106.484C48.0053 111.068 51.8701 114.889 56.4392 117.947C61.0234 120.911 66.1125 122.836 71.7064 123.724C76.5419 124.492 81.2209 124.408 85.7433 123.473C90.3756 122.459 94.916 120.798 99.3647 118.491C101.267 117.529 103.009 117.271 104.591 117.717C106.282 118.082 107.599 118.972 108.541 120.385C109.498 121.703 109.811 123.405 109.48 125.491C109.164 127.482 108.128 129.116 106.37 130.392C94.8207 137.016 82.5514 139.297 69.562 137.235ZM163.417 150.673C161.331 150.342 159.69 149.353 158.494 147.705C157.297 146.057 156.865 144.19 157.196 142.104L171.484 52.079L140.765 47.2033C138.774 46.8873 137.212 46.0077 136.08 44.5644C135.059 43.0414 134.706 41.2844 135.022 39.2933C135.338 37.3022 136.21 35.7882 137.638 34.7513C139.176 33.6345 140.941 33.2342 142.932 33.5502L219.019 45.6267C221.01 45.9427 222.517 46.8622 223.539 48.3852C224.671 49.8285 225.078 51.5456 224.762 53.5367C224.446 55.5278 223.519 57.0817 221.981 58.1984C220.553 59.2353 218.843 59.5958 216.852 59.2798L186.275 54.4266L171.986 144.452C171.655 146.538 170.666 148.179 169.018 149.375C167.37 150.572 165.503 151.004 163.417 150.673ZM231.986 161.556C229.9 161.225 228.259 160.236 227.063 158.588C225.866 156.94 225.433 155.073 225.764 152.987L241.046 56.7045C241.392 54.5238 242.382 52.8826 244.015 51.7809C245.663 50.5845 247.53 50.1518 249.615 50.4828L278.059 54.9974C285.17 56.126 291.227 58.6912 296.23 62.6928C301.232 66.6945 304.807 71.7331 306.953 77.8086C309.209 83.8044 309.765 90.4051 308.621 97.6109C307.523 104.532 304.98 110.447 300.994 115.355C297.102 120.277 292.166 123.819 286.185 125.981C280.204 128.142 273.658 128.658 266.547 127.529L245.499 124.189L240.555 155.335C240.224 157.421 239.235 159.062 237.587 160.258C236.034 161.47 234.167 161.903 231.986 161.556ZM247.666 110.536L268.714 113.876C275.162 114.9 280.795 113.704 285.614 110.289C290.447 106.779 293.376 101.801 294.399 95.3537C295.122 90.8026 294.806 86.67 293.451 82.9557C292.112 79.1467 289.941 75.9833 286.938 73.4655C283.936 70.9477 280.254 69.3427 275.892 68.6505L254.844 65.3097L247.666 110.536ZM364.316 184.018C355.972 182.693 348.558 180.107 342.073 176.259C335.603 172.316 330.254 167.433 326.027 161.611C321.909 155.708 319.025 149.078 317.374 141.72C315.738 134.268 315.582 126.37 316.906 118.026C318.231 109.682 320.817 102.268 324.665 95.7833C328.513 89.2983 333.301 83.9346 339.029 79.692C344.867 75.3696 351.464 72.3829 358.822 70.7319C366.195 68.9861 374.053 68.7753 382.397 70.0995C390.74 71.4238 398.1 74.0499 404.475 77.9778C410.96 81.8259 416.308 86.7087 420.521 92.6262C424.748 98.4489 427.688 105.039 429.339 112.397C430.99 119.755 431.153 127.605 429.829 135.949C428.505 144.292 425.911 151.754 422.048 158.334C418.2 164.819 413.357 170.222 407.519 174.545C401.696 178.772 395.098 181.759 387.726 183.505C380.463 185.171 372.659 185.342 364.316 184.018ZM366.438 170.649C374.686 171.958 382.288 171.221 389.242 168.436C396.212 165.557 402.017 161.133 406.659 155.162C411.315 149.097 414.298 141.94 415.607 133.692C416.916 125.443 416.288 117.761 413.724 110.648C411.174 103.439 407.024 97.434 401.274 92.6332C395.523 87.8324 388.524 84.7774 380.275 83.4682C372.026 82.159 364.425 82.8965 357.47 85.6808C350.516 88.465 344.71 92.8897 340.054 98.9548C335.413 104.925 332.438 112.035 331.128 120.283C329.819 128.532 330.439 136.261 332.989 143.47C335.553 150.584 339.703 156.588 345.439 161.484C351.189 166.285 358.189 169.34 366.438 170.649ZM451.85 196.453C449.764 196.122 448.076 195.125 446.784 193.462C445.493 191.799 445.013 189.924 445.344 187.838L460.626 91.5556C460.972 89.3749 462.009 87.7413 463.737 86.6547C465.479 85.4732 467.394 85.0481 469.479 85.3791C471.66 85.7253 473.254 86.7072 474.261 88.3251C475.378 89.8631 475.763 91.7225 475.417 93.9032L462.618 174.542L544.427 100.045C546.23 98.4842 548.269 97.8845 550.545 98.2456C552.725 98.5918 554.367 99.5812 555.468 101.214C556.68 102.767 557.113 104.634 556.766 106.815L541.485 203.098C541.154 205.184 540.164 206.825 538.516 208.021C536.963 209.233 535.096 209.665 532.915 209.319C530.83 208.988 529.188 207.999 527.992 206.351C526.795 204.703 526.363 202.836 526.694 200.75L539.47 120.254L457.945 194.796C457.161 195.449 456.21 195.93 455.092 196.238C453.974 196.547 452.893 196.618 451.85 196.453ZM511.637 81.5726C506.802 80.8051 502.568 79.3069 498.937 77.0781C495.32 74.7545 492.6 71.9899 490.776 68.7843C488.967 65.484 488.348 62.0323 488.92 58.4294C489.236 56.4384 490.116 54.8769 491.559 53.7452C493.002 52.6134 494.625 52.1905 496.426 52.4764C498.323 52.7774 499.734 53.6819 500.661 55.1898C501.683 56.7129 502.036 58.4699 501.72 60.461C501.344 62.8313 502.253 65.0654 504.447 67.1633C506.657 69.1664 509.61 70.4614 513.308 71.0483C517.005 71.6352 520.215 71.3183 522.936 70.0978C525.672 68.7824 527.228 66.9396 527.604 64.5692C527.92 62.5782 528.8 61.0167 530.243 59.885C531.686 58.7532 533.309 58.3303 535.11 58.6162C537.006 58.9172 538.418 59.8217 539.345 61.3296C540.367 62.8527 540.72 64.6097 540.404 66.6008C539.832 70.2037 538.175 73.2942 535.433 75.8722C532.706 78.3554 529.264 80.1419 525.105 81.2315C521.057 82.2414 516.568 82.3551 511.637 81.5726Z" fill="#72B6DC"/>
<path d="M169.728 410.642C167.06 410.975 164.87 410.087 163.156 407.979C161.442 405.871 160.996 403.46 161.818 400.745L190.017 299.857C191.03 296.345 193.156 294.386 196.395 293.983C199.824 293.555 202.366 294.931 204.02 298.111L256.307 389.254C257.687 391.791 257.847 394.238 256.787 396.595C255.81 398.845 253.94 400.143 251.177 400.487C249.748 400.665 248.319 400.456 246.891 399.861C245.545 399.158 244.498 398.127 243.748 396.77L200.031 318.489L176.017 405.215C175.54 406.822 174.682 408.09 173.443 409.018C172.3 409.935 171.061 410.476 169.728 410.642ZM324.432 392.805C316.049 393.85 308.208 393.425 300.909 391.529C293.599 389.538 287.104 386.333 281.426 381.914C275.831 377.387 271.219 371.819 267.589 365.21C263.947 358.505 261.604 350.961 260.559 342.577C259.514 334.194 259.939 326.353 261.834 319.055C263.73 311.756 266.84 305.274 271.164 299.607C275.571 293.833 281.08 289.132 287.69 285.502C294.288 281.777 301.778 279.392 310.161 278.347C318.544 277.302 326.343 277.78 333.559 279.783C340.857 281.679 347.352 284.884 353.042 289.398C358.72 293.818 363.374 299.332 367.004 305.942C370.634 312.552 372.971 320.048 374.016 328.431C375.062 336.814 374.642 344.703 372.759 352.097C370.863 359.395 367.712 365.931 363.304 371.705C358.885 377.384 353.376 382.085 346.778 385.81C340.264 389.428 332.815 391.759 324.432 392.805ZM322.757 379.373C331.045 378.339 338.143 375.52 344.05 370.913C349.946 366.212 354.294 360.349 357.094 353.324C359.883 346.205 360.76 338.501 359.727 330.213C358.694 321.925 355.957 314.72 351.518 308.599C347.066 302.382 341.412 297.766 334.554 294.751C327.696 291.736 320.124 290.746 311.836 291.779C303.548 292.812 296.45 295.632 290.543 300.238C284.635 304.845 280.287 310.708 277.499 317.827C274.698 324.852 273.815 332.508 274.848 340.796C275.882 349.084 278.624 356.336 283.075 362.553C287.515 368.675 293.169 373.291 300.039 376.401C306.897 379.415 314.469 380.406 322.757 379.373ZM411.69 380.474C409.594 380.735 407.743 380.241 406.136 378.99C404.529 377.739 403.595 376.066 403.333 373.97L391.272 277.231C390.998 275.04 391.493 273.189 392.756 271.677C394.007 270.07 395.68 269.135 397.776 268.874C400.633 268.518 402.991 269.578 404.848 272.056L457.888 351.786L488.583 261.615C489.775 258.758 491.8 257.151 494.657 256.795C496.753 256.533 498.605 257.028 500.212 258.279C501.807 259.434 502.741 261.108 503.014 263.299L515.076 360.038C515.337 362.133 514.795 363.991 513.449 365.61C512.198 367.217 510.573 368.145 508.572 368.395C506.476 368.656 504.625 368.161 503.018 366.91C501.411 365.66 500.476 363.986 500.215 361.891L491.36 290.872L465.564 365.631C464.253 368.309 462.264 369.815 459.597 370.147C456.453 370.539 453.983 369.348 452.185 366.573L409.5 302.385L418.194 372.117C418.455 374.213 417.961 376.064 416.71 377.671C415.459 379.279 413.786 380.213 411.69 380.474ZM540.212 364.45C537.544 364.782 535.354 363.894 533.64 361.786C531.926 359.678 531.48 357.267 532.302 354.552L560.501 253.664C561.514 250.152 563.64 248.194 566.879 247.79C570.308 247.362 572.85 248.738 574.504 251.918L626.791 343.061C628.171 345.598 628.284 348.051 627.128 350.42C626.055 352.682 624.138 353.986 621.375 354.33C619.946 354.508 618.518 354.299 617.089 353.704C615.744 353.001 614.696 351.97 613.946 350.613L603.45 331.605L552.151 338.001L546.501 359.022C546.024 360.629 545.166 361.897 543.927 362.825C542.784 363.742 541.545 364.283 540.212 364.45ZM555.62 325.089L596.917 319.94L570.14 271.618L555.62 325.089ZM652.83 350.408C650.734 350.67 648.835 350.181 647.133 348.942C645.43 347.703 644.448 346.036 644.187 343.94L632.125 247.201C631.852 245.01 632.395 243.152 633.753 241.629C635.099 240.01 636.82 239.07 638.915 238.808C641.106 238.535 642.91 239.036 644.327 240.31C645.827 241.478 646.713 243.157 646.986 245.348L657.088 326.369L714.987 232.081C716.286 230.081 718.078 228.938 720.365 228.653C722.556 228.38 724.407 228.875 725.919 230.137C727.514 231.293 728.448 232.966 728.722 235.157L740.783 331.896C741.044 333.992 740.55 335.843 739.299 337.45C738.143 339.046 736.47 339.98 734.279 340.253C732.183 340.514 730.332 340.02 728.725 338.769C727.118 337.518 726.184 335.845 725.922 333.749L715.838 252.871L658.225 347.123C657.653 347.969 656.873 348.695 655.884 349.302C654.896 349.909 653.878 350.278 652.83 350.408ZM678.357 223.442C673.499 224.048 669.016 223.785 664.908 222.652C660.789 221.424 657.407 219.524 654.765 216.951C652.11 214.283 650.557 211.139 650.106 207.519C649.857 205.519 650.268 203.775 651.34 202.286C652.412 200.798 653.853 199.942 655.663 199.716C657.569 199.478 659.176 199.955 660.485 201.146C661.89 202.325 662.717 203.915 662.966 205.916C663.263 208.297 664.757 210.191 667.448 211.597C670.127 212.908 673.324 213.331 677.039 212.868C680.754 212.405 683.749 211.209 686.024 209.281C688.287 207.257 689.27 205.055 688.973 202.673C688.724 200.673 689.135 198.929 690.207 197.44C691.279 195.952 692.72 195.095 694.53 194.87C696.436 194.632 698.043 195.109 699.352 196.3C700.757 197.479 701.584 199.069 701.834 201.07C702.285 204.69 701.552 208.119 699.633 211.357C697.703 214.5 694.892 217.172 691.201 219.374C687.592 221.469 683.311 222.825 678.357 223.442Z" fill="#F390A8"/>
<path d="M328.815 261.571C325.902 261.998 323.195 261.769 320.693 260.885C318.228 259.953 316.144 258.382 314.44 256.174C312.779 253.96 311.692 251.1 311.178 247.596L308.896 232.019C308.76 231.09 308.944 230.287 309.449 229.609C309.989 228.883 310.724 228.452 311.652 228.316C312.581 228.18 313.387 228.385 314.071 228.932C314.791 229.43 315.219 230.144 315.355 231.072L317.637 246.65C318.163 250.238 319.5 252.738 321.647 254.148C323.83 255.51 326.357 255.981 329.228 255.56C331.043 255.294 332.595 254.7 333.882 253.778C335.213 252.85 336.21 251.712 336.875 250.364C337.54 249.016 337.761 247.582 337.539 246.063L334.922 228.205C334.78 227.234 334.961 226.41 335.465 225.732C336.012 225.049 336.75 224.639 337.678 224.503C338.649 224.36 339.474 224.541 340.151 225.046C340.829 225.55 341.239 226.288 341.381 227.259L345.519 255.501C345.655 256.43 345.474 257.254 344.976 257.974C344.472 258.652 343.734 259.062 342.763 259.204C341.834 259.34 341.01 259.159 340.29 258.661C339.606 258.114 339.196 257.377 339.06 256.448L338.958 255.751C337.841 257.252 336.41 258.518 334.663 259.55C332.917 260.582 330.968 261.256 328.815 261.571ZM374.149 219.288C375.457 219.097 376.531 219.651 377.368 220.951L394.56 247.346C395.064 248.134 395.217 248.888 395.021 249.607C394.818 250.283 394.382 250.843 393.714 251.286C391.98 252.402 390.547 252.181 389.413 250.623L375.658 228.705L368.452 253.694C368.19 254.551 367.697 255.163 366.975 255.527C366.288 255.844 365.47 255.856 364.522 255.563C363.664 255.301 363.02 254.878 362.59 254.294C362.201 253.704 362.156 252.956 362.455 252.05L371.415 221.823C371.845 220.338 372.756 219.493 374.149 219.288ZM426.875 247.203C423.962 247.63 421.255 247.402 418.754 246.518C416.289 245.585 414.204 244.015 412.501 241.806C410.84 239.592 409.752 236.733 409.239 233.229L406.956 217.651C406.82 216.722 407.005 215.919 407.509 215.241C408.049 214.515 408.784 214.084 409.713 213.948C410.642 213.812 411.448 214.017 412.132 214.564C412.851 215.062 413.279 215.776 413.416 216.705L415.698 232.282C416.224 235.871 417.56 238.37 419.707 239.78C421.89 241.142 424.417 241.613 427.288 241.192C429.103 240.926 430.655 240.332 431.943 239.41C433.273 238.482 434.271 237.344 434.936 235.997C435.601 234.649 435.822 233.215 435.599 231.695L432.983 213.838C432.84 212.867 433.021 212.042 433.526 211.365C434.073 210.681 434.81 210.271 435.739 210.135C436.71 209.993 437.534 210.174 438.212 210.678C438.889 211.183 439.299 211.92 439.442 212.891L443.58 241.134C443.716 242.062 443.535 242.887 443.036 243.607C442.532 244.284 441.794 244.694 440.823 244.836C439.895 244.972 439.07 244.791 438.351 244.293C437.667 243.746 437.257 243.009 437.121 242.08L437.019 241.383C435.902 242.884 434.47 244.15 432.724 245.182C430.978 246.214 429.028 246.888 426.875 247.203Z" fill="#1F2E37"/>
</svg>
